<svg xmlns="http://www.w3.org/2000/svg" xmlns:xlink="http://www.w3.org/1999/xlink" style="display:none">
  <!-- TypeScript Icon -->
  <symbol id="typescript" viewBox="0 0 256 256">
    <rect width="256" height="256" rx="20" fill="#3178C6"/>
    <path d="M150.518 200.475v27.62c4.492 2.302 9.805 4.028 15.938 5.179 6.133 1.151 12.597 1.726 19.393 1.726 6.622 0 12.914-.633 18.874-1.899 5.96-1.266 11.187-3.352 15.678-6.257 4.492-2.906 8.048-6.704 10.669-11.394 2.62-4.689 3.93-10.486 3.93-17.391 0-5.006-.749-9.394-2.246-13.163a30.748 30.748 0 0 0-6.479-10.055c-2.821-2.935-6.205-5.567-10.149-7.898-3.945-2.33-8.394-4.531-13.347-6.602-3.628-1.497-6.881-2.949-9.761-4.359-2.879-1.41-5.327-2.848-7.342-4.316-2.016-1.467-3.571-3.021-4.665-4.661-1.094-1.64-1.641-3.495-1.641-5.567 0-1.899.489-3.61 1.468-5.135s2.362-2.834 4.147-3.927c1.785-1.094 3.973-1.942 6.565-2.547 2.591-.604 5.471-.906 8.638-.906 2.304 0 4.737.173 7.299.518 2.563.345 5.14.877 7.732 1.597a53.669 53.669 0 0 1 7.558 2.719 41.7 41.7 0 0 1 6.781 3.797v-25.807c-4.204-1.611-8.797-2.805-13.778-3.582-4.981-.777-10.697-1.165-17.147-1.165-6.565 0-12.784.705-18.658 2.115-5.874 1.409-11.043 3.61-15.506 6.602-4.463 2.993-7.99 6.805-10.582 11.437-2.591 4.632-3.887 10.17-3.887 16.615 0 8.228 2.375 15.248 7.127 21.06 4.751 5.811 11.963 10.731 21.638 14.759a291.458 291.458 0 0 1 10.625 4.575c3.283 1.496 6.119 3.049 8.509 4.66 2.39 1.611 4.276 3.366 5.658 5.265 1.382 1.899 2.073 4.057 2.073 6.474a9.901 9.901 0 0 1-1.296 4.963c-.863 1.524-2.174 2.848-3.93 3.97-1.756 1.122-3.945 1.999-6.565 2.632-2.62.633-5.687.95-9.2.95-5.989 0-11.92-1.05-17.794-3.151-5.875-2.1-11.317-5.25-16.327-9.451Zm-46.036-68.733H140V109H41v22.742h35.345V233h28.137V131.742Z" fill="#FFF"/>
  </symbol>

  <symbol id="html" viewBox="0 0 452 520">
    <path fill="#e34f26" d="M41 460L0 0h451l-41 460-185 52" />
    <path fill="#ef652a" d="M226 472l149-41 35-394H226" />
    <path fill="#ecedee" d="M226 208h-75l-5-58h80V94H84l15 171h127zm0 147l-64-17-4-45h-56l7 89 117 32z"/>
    <path fill="#fff" d="M226 265h69l-7 73-62 17v59l115-32 16-174H226zm0-171v56h136l5-56z"/>
  </symbol>

  <!-- CSS Icon -->
  <symbol id="css" viewBox="0 0 1000 1000">
    <path fill="#639" d="M0 0h840a160 160 0 0 1 160 160v680a160 160 0 0 1-160 160H160A160 160 0 0 1 0 840V0Z"/>
    <path fill="#fff" d="M816.54 919.9c-32.39 0-57.16-9.42-74.5-28.35-17.15-19.03-26.08-46.18-26.88-81.64h69.8c.4 31.36 11.42 47.08 33.08 47.08 11.04 0 18.86-3.5 23.37-10.42 4.41-6.9 6.72-17.93 6.72-33.05 0-12.02-3.01-22.04-8.83-29.95a73.2 73.2 0 0 0-29.48-21.14L783.95 750c-23.06-11.02-39.81-24.04-50.14-39.27-10.03-15.13-15.04-36.36-15.04-63.5 0-30.36 8.83-55 26.37-73.94 18.05-18.93 42.62-28.34 74-28.34 30.3 0 53.76 9.31 70.3 27.84 16.85 18.64 25.67 45.28 26.38 80.14h-67.19c.4-11.4-1.9-22.72-6.72-33.06-3.8-7.6-11.23-11.41-22.26-11.41-19.65 0-29.48 11.71-29.48 35.05 0 11.83 2.4 21.04 7.22 28.05A65.18 65.18 0 0 0 822.76 689l24.77 10.92c25.57 11.72 44.02 26.05 55.35 43.38 11.43 17.23 17.05 40.27 17.05 69.12 0 34.56-9.03 61.1-27.38 79.63-18.25 18.53-43.62 27.85-76 27.85Zm-225.42 0c-32.4 0-57.16-9.42-74.51-28.35-17.15-19.03-26.07-46.18-26.87-81.64h69.79c.4 31.36 11.43 47.08 33.1 47.08 11.02 0 18.84-3.5 23.25-10.42 4.52-6.9 6.72-17.93 6.72-33.05 0-12.02-2.9-22.04-8.72-29.95a73.2 73.2 0 0 0-29.48-21.14L558.53 750c-23.07-11.02-39.81-24.04-50.14-39.27-10.03-15.13-15.04-36.36-15.04-63.5 0-30.36 8.82-55 26.37-73.94 18.05-18.93 42.62-28.34 74-28.34 30.29 0 53.75 9.31 70.2 27.84 17.05 18.64 25.77 45.28 26.47 80.14h-67.18c.4-11.4-1.9-22.72-6.72-33.06-3.81-7.6-11.23-11.41-22.26-11.41-19.66 0-29.49 11.71-29.49 35.05 0 11.83 2.41 21.04 7.22 28.05A65.18 65.18 0 0 0 597.33 689l24.77 10.92c25.57 11.72 44.02 26.05 55.36 43.38 11.33 17.23 17.04 40.27 17.04 69.12 0 34.56-9.12 61.1-27.37 79.63-18.25 18.53-43.62 27.85-76.01 27.85Zm-234.75 0c-31.7 0-56.86-8.62-75.51-25.85-18.65-17.12-27.88-42.87-27.88-76.93V648.83c0-33.85 9.83-59.5 29.48-77.13 19.96-17.43 46.13-26.24 78.52-26.24 31.39 0 56.15 9.01 74.5 26.84 18.56 17.93 27.88 44.58 27.88 80.14v13.32h-73.9v-12.92c0-13.72-3.01-23.84-8.83-30.45a26.46 26.46 0 0 0-21.66-10.32c-12.03 0-20.55 4.1-25.37 12.42a79.04 79.04 0 0 0-6.72 36.66v146.26c0 30.55 10.74 46.08 32.1 46.38 10.02 0 17.54-3.61 22.76-10.82a51.74 51.74 0 0 0 7.72-30.46V801.6h73.9v11.42c0 23.74-4.61 43.57-13.94 59.4a88.8 88.8 0 0 1-38.2 35.66 121.46 121.46 0 0 1-54.85 11.82Z"/>
  </symbol>
  <!-- LinkedIn Icon -->
  <symbol id="linkedin" viewBox="0 0 256 256">
    <path d="M218.123 218.127h-37.931v-59.403c0-14.165-.253-32.4-19.728-32.4-19.756 0-22.779 15.434-22.779 31.369v60.43h-37.93V95.967h36.413v16.694h.51a39.907 39.907 0 0 1 35.928-19.733c38.445 0 45.533 25.288 45.533 58.186l-.016 67.013ZM56.955 79.27c-12.157.002-22.014-9.852-22.016-22.009-.002-12.157 9.851-22.014 22.008-22.016 12.157-.003 22.014 9.851 22.016 22.008A22.013 22.013 0 0 1 56.955 79.27m18.966 138.858H37.95V95.967h37.97v122.16ZM237.033.018H18.89C8.58-.098.125 8.161-.001 18.471v219.053c.122 10.315 8.576 18.582 18.89 18.474h218.144c10.336.128 18.823-8.139 18.966-18.474V18.454c-.147-10.33-8.635-18.588-18.966-18.453" fill="#ffffffff"/>
  </symbol>
  <!-- GitHub Icon -->
  <symbol id="github" viewBox="0 0 1024 1024">
    <path fill-rule="evenodd" clip-rule="evenodd" d="M8 0C3.58 0 0 3.58 0 8C0 11.54 2.29 14.53 5.47 15.59C5.87 15.66 6.02 15.42 6.02 15.21C6.02 15.02 6.01 14.39 6.01 13.72C4 14.09 3.48 13.23 3.32 12.78C3.23 12.55 2.84 11.84 2.5 11.65C2.22 11.5 1.82 11.13 2.49 11.12C3.12 11.11 3.57 11.7 3.72 11.94C4.44 13.15 5.59 12.81 6.05 12.6C6.12 12.08 6.33 11.73 6.56 11.53C4.78 11.33 2.92 10.64 2.92 7.58C2.92 6.71 3.23 5.99 3.74 5.43C3.66 5.23 3.38 4.41 3.82 3.31C3.82 3.31 4.49 3.1 6.02 4.13C6.66 3.95 7.34 3.86 8.02 3.86C8.7 3.86 9.38 3.95 10.02 4.13C11.55 3.09 12.22 3.31 12.22 3.31C12.66 4.41 12.38 5.23 12.3 5.43C12.81 5.99 13.12 6.7 13.12 7.58C13.12 10.65 11.25 11.33 9.47 11.53C9.76 11.78 10.01 12.26 10.01 13.01C10.01 14.08 10 14.94 10 15.21C10 15.42 10.15 15.67 10.55 15.59C13.71 14.53 16 11.53 16 8C16 3.58 12.42 0 8 0Z" transform="scale(64)" fill="#fff"/>
  </symbol>
    <!-- Java Icon -->
  <symbol id="java" viewBox="0 0 48 48">
    <path fill="#F44336" d="M23.65,24.898c-0.998-1.609-1.722-2.943-2.725-5.455C19.229,15.2,31.24,11.366,26.37,3.999c2.111,5.089-7.577,8.235-8.477,12.473C17.07,20.37,23.645,24.898,23.65,24.898z"/><path fill="#F44336" d="M23.878,17.27c-0.192,2.516,2.229,3.857,2.299,5.695c0.056,1.496-1.447,2.743-1.447,2.743s2.728-0.536,3.579-2.818c0.945-2.534-1.834-4.269-1.548-6.298c0.267-1.938,6.031-5.543,6.031-5.543S24.311,11.611,23.878,17.27z"/><g><path fill="#1565C0" d="M32.084 25.055c1.754-.394 3.233.723 3.233 2.01 0 2.901-4.021 5.643-4.021 5.643s6.225-.742 6.225-5.505C37.521 24.053 34.464 23.266 32.084 25.055zM29.129 27.395c0 0 1.941-1.383 2.458-1.902-4.763 1.011-15.638 1.147-15.638.269 0-.809 3.507-1.638 3.507-1.638s-7.773-.112-7.773 2.181C11.683 28.695 21.858 28.866 29.129 27.395z"/><path fill="#1565C0" d="M27.935,29.571c-4.509,1.499-12.814,1.02-10.354-0.993c-1.198,0-2.974,0.963-2.974,1.889c0,1.857,8.982,3.291,15.63,0.572L27.935,29.571z"/><path fill="#1565C0" d="M18.686,32.739c-1.636,0-2.695,1.054-2.695,1.822c0,2.391,9.76,2.632,13.627,0.205l-2.458-1.632C24.271,34.404,17.014,34.579,18.686,32.739z"/><path fill="#1565C0" d="M36.281,36.632c0-0.936-1.055-1.377-1.433-1.588c2.228,5.373-22.317,4.956-22.317,1.784c0-0.721,1.807-1.427,3.477-1.093l-1.42-0.839C11.26,34.374,9,35.837,9,37.017C9,42.52,36.281,42.255,36.281,36.632z"/><path fill="#1565C0" d="M39,38.604c-4.146,4.095-14.659,5.587-25.231,3.057C24.341,46.164,38.95,43.628,39,38.604z"/></g>
  </symbol>
</svg>
